<?xml version="1.0" encoding="iso-8859-1"?>

<!DOCTYPE svg PUBLIC "-//W3C//DTD SVG 1.1//EN" "http://www.w3.org/Graphics/SVG/1.1/DTD/svg11.dtd">
<!-- Uploaded to: SVG Repo, www.svgrepo.com, Generator: SVG Repo Mixer Tools -->
<svg version="1.1" id="_x36_" xmlns="http://www.w3.org/2000/svg" xmlns:xlink="http://www.w3.org/1999/xlink" 
	 viewBox="0 0 512 512"  xml:space="preserve">
<g>
	<g>
		<g>
			<path style="fill:#607280;" d="M450.321,512H0c0,0,0.591-7.152,1.444-17.519c1.575-19.094,4.134-49.081,5.709-65.156
				c2.362-24.803,18.897-43.372,42.65-51.64c11.811-4.134,42.65-15.485,70.471-25.853l0.722-0.263
				c9.711-3.609,19.029-7.021,26.968-10.039c1.443-0.525,2.822-1.05,4.199-1.509c6.168-2.297,11.286-4.265,14.96-5.577
				c1.378-0.525,2.493-0.984,3.412-1.312h0.066c1.575-0.591,2.428-0.919,2.428-0.919l52.165,1.509l3.215-0.066l48.884-1.444
				c0,0,0.853,0.328,2.493,0.919c0.919,0.328,2.1,0.787,3.478,1.312c3.937,1.444,9.514,3.543,16.273,6.102
				c0.919,0.328,1.837,0.656,2.822,1.05c11.089,4.068,24.803,9.186,38.516,14.239v0.066c3.084,1.116,6.168,2.231,9.252,3.346
				c4.527,1.706,9.055,3.346,13.451,4.987c1.444,0.525,2.887,1.05,4.265,1.575c2.822,1.05,5.512,2.034,8.136,3.018
				c6.627,2.428,12.598,4.593,17.323,6.299c0.984,0.328,1.903,0.656,2.756,0.984c1.706,0.59,3.215,1.115,4.527,1.575
				c23.687,8.268,40.288,26.837,42.65,51.64C445.597,454.127,450.321,512,450.321,512z"/>
			<polygon style="fill:#E9E8E8;" points="223.619,365.086 223.619,511.147 152.097,511.147 152.097,450.452 90.55,462.395 
				112.4,355.178 120.274,351.832 120.995,351.569 147.767,340.284 150.129,339.299 152.163,340.021 167.123,345.27 			"/>
			<polygon style="fill:#E9E8E8;" points="303.002,339.276 340.724,355.161 362.562,462.37 301.022,450.451 301.022,511.127 
				229.544,511.127 229.544,365.094 			"/>
		</g>
		<path style="fill:#CDA671;" d="M349.076,107.872v45.078c0,6.168,0,8.202,0,8.202c-59.251,0-82.479,28.477-107.741,52.033
			c-4.199,3.871-8.399,7.611-12.926,11.089c-14.37,11.155-31.168,19.291-56.102,19.291c0.853-7.611-1.116-16.01-5.184-24.278
			c-11.614-23.819-40.091-46.653-65.878-46.85c0-6.233,0-8.202,0-8.202v-56.364c0-10.236,2.493-21.588,7.414-32.939
			c10.695-25.065,32.742-50.393,64.238-64.238C188.186,4.003,205.705,0,225.193,0c10.695,0,20.8,1.181,30.249,3.478
			c17.585,4.068,33.005,11.614,45.931,21.128c1.509,1.115,2.953,2.231,4.331,3.412c0.131,0.066,0.262,0.197,0.394,0.262
			c0.066,0.066,0.131,0.131,0.131,0.131c1.181,0.919,2.297,1.903,3.346,2.887c1.05,0.853,2.034,1.772,3.018,2.69
			c1.181,1.05,2.231,2.1,3.281,3.215c1.378,1.378,2.69,2.69,3.937,4.134c1.378,1.509,2.69,3.018,4.003,4.593
			c0.131,0.131,0.262,0.262,0.328,0.459c0.066,0,0.066,0,0.131,0.066c0.131,0.066,0.197,0.197,0.263,0.328
			c3.478,4.199,6.562,8.53,9.252,12.992c0.591,0.919,1.116,1.837,1.64,2.756c1.772,3.018,3.412,6.102,4.79,9.186
			c0.459,0.853,0.787,1.772,1.181,2.625c0.131,0.263,0.262,0.59,0.394,0.853c0.919,2.165,1.772,4.331,2.559,6.496
			c0.525,1.64,1.05,3.215,1.509,4.921c0.525,1.837,0.984,3.674,1.378,5.512c0.394,1.772,0.722,3.609,0.984,5.38
			c0.263,1.378,0.394,2.821,0.525,4.199C349.01,103.804,349.076,105.838,349.076,107.872z"/>
		<rect x="167.123" y="213.186" style="fill:#FCEDC3;" width="116.14" height="160.824"/>
		<path style="fill:#FCF7CB;" d="M349.076,152.95c0,6.168,0,8.202,0,8.202v56.364c0,1.509-0.066,3.018-0.197,4.527
			c-0.066,1.247-0.197,2.559-0.328,3.871c-0.131,1.247-0.328,2.493-0.591,3.74c-0.131,0.787-0.262,1.509-0.394,2.296
			c-0.394,1.772-0.787,3.543-1.247,5.315c-0.394,1.444-0.853,2.887-1.312,4.331c-0.787,2.428-1.706,4.921-2.69,7.415
			c-0.525,1.247-1.05,2.493-1.64,3.74c-1.378,3.084-2.953,6.234-4.724,9.317c-0.853,1.444-1.706,2.887-2.625,4.331
			c-0.722,1.116-1.443,2.297-2.231,3.412c-3.478,5.184-7.415,10.236-11.942,15.026c-0.919,0.984-1.837,1.969-2.822,2.953
			c-1.312,1.444-2.69,2.756-4.068,3.937c-1.115,1.05-2.231,2.034-3.346,3.018c-0.656,0.591-1.247,1.116-1.903,1.575
			c-1.05,0.853-2.1,1.706-3.15,2.559c-1.706,1.378-3.478,2.69-5.249,3.871c-1.378,0.984-2.756,1.903-4.199,2.756
			c-0.394,0.328-0.722,0.591-1.115,0.722c-1.509,0.984-3.018,1.903-4.593,2.69c-0.525,0.394-1.05,0.722-1.575,0.919
			c-1.247,0.722-2.559,1.444-3.871,2.034v0.066c-15.748,7.94-34.12,12.926-54.855,13.386c-1.05,0.066-2.1,0.066-3.215,0.066
			c-22.047,0-41.469-5.118-58.07-13.451c-42.191-21.128-65.878-63.122-65.878-94.421v-45.078c0-6.233,0-8.202,0-8.202
			c73.687,0,91.731-44.094,127.163-67.781c12.992-8.661,28.346-14.632,49.605-14.632C274.733,111.35,314.365,152.688,349.076,152.95
			z"/>
		<rect x="198.702" y="367.066" style="fill:#E01E25;" width="52.947" height="37.07"/>
		<rect x="198.702" y="400.163" style="fill:#C12132;" width="52.947" height="11.905"/>
		<g>
			<polygon style="fill:#FFFFFF;" points="225.193,365.086 223.619,366.595 223.159,367.055 216.007,374.01 198.685,390.742 
				162.99,425.322 147.964,341.53 147.767,340.284 147.111,336.609 162.99,328.669 167.123,331.097 170.535,333.131 
				170.601,333.131 			"/>
			<polygon style="fill:#FFFFFF;" points="225.172,365.094 287.379,328.69 303.258,336.63 287.379,425.307 			"/>
		</g>
		<rect x="198.702" y="407.603" style="fill:#E01E25;" width="52.947" height="104.351"/>
	</g>
	<path style="opacity:0.1;fill:#4D4948;" d="M450.321,512H228.409V0.131c9.514,0.197,18.504,1.378,27.034,3.346
		c17.585,4.068,33.005,11.614,45.931,21.128c1.509,1.115,2.953,2.231,4.331,3.412c0.131,0.066,0.262,0.197,0.394,0.262
		c0.066,0.066,0.131,0.131,0.131,0.131c1.181,0.919,2.297,1.903,3.346,2.887c1.05,0.853,2.034,1.772,3.018,2.69
		c1.181,1.05,2.231,2.1,3.281,3.215c1.378,1.312,2.756,2.69,3.937,4.134c1.378,1.509,2.69,3.018,4.003,4.593
		c0.197,0.131,0.328,0.328,0.459,0.525c0.131,0.066,0.197,0.197,0.263,0.328c3.478,4.199,6.562,8.53,9.252,12.992
		c0.591,0.919,1.116,1.837,1.64,2.756c1.772,3.018,3.412,6.102,4.79,9.186c0.459,0.853,0.787,1.772,1.181,2.625
		c0.131,0.263,0.262,0.59,0.394,0.853c0.919,2.165,1.772,4.331,2.559,6.496c0.525,1.64,1.05,3.215,1.509,4.921
		c0.525,1.837,0.984,3.674,1.378,5.512c0.394,1.772,0.722,3.609,0.984,5.38c0.263,1.378,0.394,2.821,0.525,4.199
		c0.262,2.1,0.328,4.134,0.328,6.168v45.078c0,6.168,0,8.202,0,8.202v56.364c0,1.509-0.066,3.018-0.197,4.527
		c-0.066,1.247-0.197,2.559-0.328,3.871c-0.656,5.052-1.837,10.367-3.543,15.682c-0.262,0.919-0.59,1.772-0.919,2.69
		c-0.525,1.575-1.116,3.15-1.772,4.724c-0.525,1.247-1.05,2.493-1.64,3.74c-0.656,1.575-1.444,3.084-2.231,4.659
		c-0.787,1.575-1.64,3.15-2.493,4.659c-0.853,1.444-1.706,2.887-2.625,4.331c-0.656,1.116-1.378,2.165-2.1,3.215
		c0,0.066-0.066,0.131-0.131,0.197c-1.116,1.706-2.297,3.346-3.543,4.987c-1.575,2.1-3.215,4.199-4.921,6.168
		c-1.181,1.378-2.362,2.756-3.674,4.068c-0.853,0.919-1.706,1.837-2.625,2.756c-1.312,1.378-2.69,2.69-4.068,3.937
		c-0.919,0.853-1.903,1.706-2.821,2.559c-0.787,0.722-1.575,1.444-2.428,2.034c-1.05,0.853-2.1,1.706-3.15,2.559
		c-0.197,0.197-0.394,0.394-0.591,0.459c-1.181,0.984-2.428,1.903-3.74,2.756c-0.263,0.263-0.591,0.525-0.919,0.656
		c-1.378,0.984-2.756,1.903-4.199,2.756c-0.394,0.328-0.722,0.591-1.115,0.722c-1.64,1.05-3.281,2.034-4.921,2.887
		c-0.394,0.328-0.853,0.591-1.247,0.722c-0.853,0.525-1.64,0.984-2.493,1.312c-0.459,0.328-0.919,0.525-1.378,0.787v19.16
		l4.134-2.428l15.879,7.94l-0.525,2.756h0.066l0.197-0.066l37.729,15.879l0.131,0.656c1.575,0.591,3.084,1.115,4.593,1.706
		c15.354,5.709,30.446,11.22,41.601,15.354c1.116,0.394,2.231,0.787,3.281,1.181c4.134,1.444,7.611,2.69,10.236,3.609
		c23.687,8.268,40.288,26.837,42.65,51.64C445.597,454.127,450.321,512,450.321,512z"/>
</g>
</svg>