<?xml version="1.0" encoding="utf-8"?><!-- Uploaded to: SVG Repo, www.svgrepo.com, Generator: SVG Repo Mixer Tools -->
<svg fill="#000000" width="800px" height="800px" viewBox="0 0 24 24" id="report-pie-chart-3" data-name="Flat Line" xmlns="http://www.w3.org/2000/svg" class="icon flat-line"><path id="secondary" d="M11,12a5,5,0,0,0,5,5v3a1,1,0,0,1-1,1H4a1,1,0,0,1-1-1V4A1,1,0,0,1,4,3H15a1,1,0,0,1,1,1V7A5,5,0,0,0,11,12Z" style="fill: rgb(44, 169, 188); stroke-width: 2;"></path><path id="primary" d="M16,17v3a1,1,0,0,1-1,1H4a1,1,0,0,1-1-1V4A1,1,0,0,1,4,3H15a1,1,0,0,1,1,1V7" style="fill: none; stroke: rgb(0, 0, 0); stroke-linecap: round; stroke-linejoin: round; stroke-width: 2;"></path><path id="primary-2" data-name="primary" d="M16,7a5,5,0,1,0,5,5A5,5,0,0,0,16,7Zm5,5H16V7A5,5,0,0,1,21,12Z" style="fill: none; stroke: rgb(0, 0, 0); stroke-linecap: round; stroke-linejoin: round; stroke-width: 2;"></path></svg>