<?xml version="1.0" encoding="iso-8859-1"?>
<!-- Uploaded to: SVG Repo, www.svgrepo.com, Generator: SVG Repo Mixer Tools -->
<!DOCTYPE svg PUBLIC "-//W3C//DTD SVG 1.1//EN" "http://www.w3.org/Graphics/SVG/1.1/DTD/svg11.dtd">
<svg fill="#000000" version="1.1" id="Capa_1" xmlns="http://www.w3.org/2000/svg" xmlns:xlink="http://www.w3.org/1999/xlink" 
	 width="800px" height="800px" viewBox="0 0 45.057 45.057"
	 xml:space="preserve">
<g>
	<g id="_x36_4_97_">
		<g>
			<path d="M33.431,0H5.179v45.057h34.699V6.251L33.431,0z M36.878,42.056H8.179V3h23.707v4.76h4.992V42.056z"/>
			<path d="M28.919,14.352l-6.342,6.343c-1.685-1.685-3.369-3.369-5.054-5.054c-0.11-0.109-0.224-0.197-0.34-0.271l-1.036-1.035
				l-2.604,2.603l6.396,6.396l-6.177,6.177l1.271,1.271c0.001,0.002,0.002,0.004,0.003,0.004l1.319,1.318l6.177-6.177l6.229,6.229
				l2.604-2.604l-0.918-0.919c-0.072-0.115-0.162-0.229-0.271-0.339c-1.668-1.668-3.336-3.336-5.004-5.005l6.342-6.343
				L28.919,14.352z"/>
		</g>
	</g>
</g>
</svg>