<?xml version="1.0" encoding="utf-8"?>

<!-- Uploaded to: SVG Repo, www.svgrepo.com, Generator: SVG Repo Mixer Tools -->
<svg version="1.1" id="Uploaded to svgrepo.com" xmlns="http://www.w3.org/2000/svg" xmlns:xlink="http://www.w3.org/1999/xlink" 
	 width="800px" height="800px" viewBox="0 0 32 32" xml:space="preserve">
<style type="text/css">
	.avocado_zeventien{fill:#CC4121;}
	.avocado_een{fill:#231F20;}
	.avocado_zes{fill:#FFFAEE;}
	.st0{fill:#A3AEB5;}
	.st1{fill:#AF9480;}
	.st2{fill:#DBD2C1;}
	.st3{fill:#788287;}
	.st4{fill:#EAD13F;}
	.st5{fill:#C3CC6A;}
	.st6{fill:#D1712A;}
	.st7{fill:#E0A838;}
	.st8{fill:#716558;}
	.st9{fill:#6F9B45;}
	.st10{fill:#0E608E;}
	.st11{fill:#E598A3;}
	.st12{fill:#FFFAEE;}
	.st13{fill:#3D3935;}
	.st14{fill:#248EBC;}
	.st15{fill:#BF63C1;}
</style>
<g>
	<circle class="avocado_zeventien" cx="16" cy="16" r="13.5"/>
	<path class="avocado_zes" d="M16,24.5c-4.687,0-8.5-3.813-8.5-8.5s3.813-8.5,8.5-8.5s8.5,3.813,8.5,8.5S20.687,24.5,16,24.5z
		 M16,12.5c-1.93,0-3.5,1.57-3.5,3.5s1.57,3.5,3.5,3.5s3.5-1.57,3.5-3.5S17.93,12.5,16,12.5z"/>
	<path class="avocado_een" d="M16,2C8.268,2,2,8.268,2,16s6.268,14,14,14s14-6.268,14-14S23.732,2,16,2z M16,29
		C8.832,29,3,23.168,3,16S8.832,3,16,3s13,5.832,13,13S23.168,29,16,29z M16,7c-4.971,0-9,4.029-9,9c0,4.971,4.029,9,9,9
		s9-4.029,9-9C25,11.029,20.971,7,16,7z M16,24c-4.411,0-8-3.589-8-8c0-4.411,3.589-8,8-8s8,3.589,8,8C24,20.411,20.411,24,16,24z
		 M16,12c-2.209,0-4,1.791-4,4c0,2.209,1.791,4,4,4s4-1.791,4-4C20,13.791,18.209,12,16,12z M16,19c-1.654,0-3-1.346-3-3
		c0-1.654,1.346-3,3-3s3,1.346,3,3C19,17.654,17.654,19,16,19z"/>
</g>
</svg>