<?xml version="1.0" encoding="iso-8859-1"?>
<!-- Uploaded to: SVG Repo, www.svgrepo.com, Generator: SVG Repo Mixer Tools -->
<svg height="800px" width="800px" version="1.1" id="Layer_1" xmlns="http://www.w3.org/2000/svg" xmlns:xlink="http://www.w3.org/1999/xlink" 
	 viewBox="0 0 512 512" xml:space="preserve">
<path style="fill:#ECE5DD;" d="M442.546,151.519H73.959c-12.428,0-22.539,10.111-22.539,22.539V340.44
	c0,12.427,10.111,22.539,22.539,22.539h368.586c8.141,0,14.764-6.623,14.764-14.764V166.284
	C457.31,158.142,450.687,151.519,442.546,151.519z"/>
<path style="fill:#FFA733;" d="M392.405,107.757H170.716c-12.304,0-23.363-6.836-28.866-17.841l-3.738-7.477
	c-5.689-11.377-17.125-18.444-29.844-18.444h-67.24c-18.4,0-33.368,14.969-33.368,33.367l0.073,335.297h405.817V128.902
	C413.548,117.242,404.063,107.757,392.405,107.757z"/>
<path style="fill:#ED8800;" d="M392.405,107.757H358.99c11.658,0,21.143,9.485,21.143,21.143v303.758h33.414V128.902
	C413.548,117.242,404.063,107.757,392.405,107.757z"/>
<path style="fill:#ECE5DD;" d="M442.546,151.519H73.959c-12.428,0-22.539,10.111-22.539,22.539V340.44
	c0,12.427,10.111,22.539,22.539,22.539h368.586c8.141,0,14.764-6.623,14.764-14.764V166.284
	C457.31,158.142,450.687,151.519,442.546,151.519z"/>
<path style="fill:#D9CBBD;" d="M442.546,151.519h-33.414c8.141,0,14.764,6.623,14.764,14.764v181.932
	c0,8.141-6.623,14.764-14.764,14.764h33.414c8.141,0,14.764-6.623,14.764-14.764V166.284
	C457.31,158.142,450.687,151.519,442.546,151.519z"/>
<path style="fill:#FFB656;" d="M24.417,448.004c-5.762,0-11.045-2.905-14.133-7.77s-3.466-10.882-1.013-16.098l72.283-153.603
	c2.748-5.839,8.693-9.611,15.147-9.611h390.885c5.763,0,11.047,2.905,14.133,7.771c3.087,4.863,3.467,10.881,1.013,16.097
	l-72.283,153.603c-2.748,5.839-8.692,9.611-15.146,9.611H24.417z"/>
<path style="fill:#FFA733;" d="M501.719,268.694c-3.086-4.865-8.369-7.771-14.133-7.771h-28.37c5.763,0,11.047,2.905,14.133,7.771
	c3.087,4.863,3.467,10.881,1.013,16.097l-72.283,153.603c-2.748,5.839-8.692,9.611-15.146,9.611h28.37
	c6.453,0,12.398-3.772,15.146-9.611l72.283-153.603C505.186,279.575,504.807,273.557,501.719,268.694z"/>
<g>
	<path style="fill:#BABABA;" d="M142.226,217.708h131.285c4.533,0,8.205-3.673,8.205-8.205s-3.673-8.205-8.205-8.205H142.226
		c-4.533,0-8.205,3.673-8.205,8.205S137.693,217.708,142.226,217.708z"/>
	<path style="fill:#BABABA;" d="M328.213,217.708h21.881c4.533,0,8.205-3.673,8.205-8.205s-3.673-8.205-8.205-8.205h-21.881
		c-4.533,0-8.205,3.673-8.205,8.205S323.68,217.708,328.213,217.708z"/>
</g>
<path d="M508.185,264.59c-4.5-7.092-12.2-11.326-20.599-11.326h-22.618v-86.981c0-12.364-10.059-22.422-22.422-22.422h-21.339
	v-14.96c0-15.882-12.921-28.802-28.802-28.802H170.716c-9.384,0-17.82-5.214-22.017-13.608l-3.738-7.477
	c-6.995-13.988-21.055-22.678-36.694-22.678h-67.24C18.404,56.337,0,74.742,0,97.363c0,0,0.098,337.056,0.265,337.395
	c0.487,3.348,1.668,6.611,3.552,9.579c4.5,7.09,12.201,11.326,20.6,11.326h390.885c9.406,0,18.07-5.499,22.076-14.009
	l72.283-153.603C513.237,280.452,512.686,271.681,508.185,264.59z M16.411,97.363c0-13.573,11.042-24.615,24.615-24.615h67.24
	c9.384,0,17.82,5.214,22.017,13.608l3.738,7.477c6.994,13.988,21.055,22.678,36.694,22.678h221.689
	c6.832,0,12.391,5.559,12.391,12.391v14.96H73.959c-16.651,0-30.198,13.546-30.198,30.198v158.801l-27.351,58.121V97.363z
	 M494.692,281.32l-72.163,153.346c-1.311,2.785-4.147,4.585-7.226,4.585H24.699c-2.805,0-5.512-1.33-7.019-3.697
	c-1.502-2.358-1.679-5.163-0.49-7.691l72.283-153.603c1.311-2.785,4.149-4.585,7.227-4.585h74.296c4.532,0,8.205-3.674,8.205-8.205
	s-3.674-8.205-8.205-8.205H96.7c-9.45,0-18.051,5.458-22.075,14.009l-14.453,30.711V174.058c0-7.613,6.173-13.787,13.787-13.787
	h368.586c3.32,0,6.012,2.691,6.012,6.012v86.982H207.177c-4.532,0-8.205,3.674-8.205,8.205s3.674,8.205,8.205,8.205h280.41
	c2.795,0,5.256,1.355,6.749,3.719C495.835,275.766,495.887,278.782,494.692,281.32z"/>
</svg>