<?xml version="1.0" encoding="utf-8"?><!-- Uploaded to: SVG Repo, www.svgrepo.com, Generator: SVG Repo Mixer Tools -->
<svg width="800px" height="800px" viewBox="0 0 32 32" xmlns="http://www.w3.org/2000/svg">
  <path id="settings" d="M1368,63V57h-3.393a11.918,11.918,0,0,0-1.278-3.086l2.4-2.4-4.243-4.243-2.4,2.4A11.916,11.916,0,0,0,1356,48.393V45h-6v3.393a11.916,11.916,0,0,0-3.086,1.278l-2.4-2.4-4.243,4.243,2.4,2.4A11.918,11.918,0,0,0,1341.393,57H1338v6h3.393a11.918,11.918,0,0,0,1.278,3.086l-2.4,2.4,4.243,4.243,2.4-2.4A11.917,11.917,0,0,0,1350,71.607V75h6V71.607a11.917,11.917,0,0,0,3.086-1.278l2.4,2.4,4.243-4.243-2.4-2.4A11.918,11.918,0,0,0,1364.607,63Zm-15,3a6,6,0,1,1,6-6A6,6,0,0,1,1353,66Z" transform="translate(-1337 -44)" fill="#e8f7f9" stroke="#333" stroke-linecap="round" stroke-linejoin="round" stroke-width="2"/>
</svg>