<?xml version="1.0" encoding="iso-8859-1"?>
<!-- Uploaded to: SVG Repo, www.svgrepo.com, Generator: SVG Repo Mixer Tools -->
<svg version="1.1" id="Layer_1" xmlns="http://www.w3.org/2000/svg" xmlns:xlink="http://www.w3.org/1999/xlink" 
	 viewBox="0 0 512 512" xml:space="preserve">
<polygon style="fill:#EFEFEF;" points="355.192,15.763 355.192,496.237 13.767,496.237 13.767,125.9 124.014,15.763 "/>
<rect x="280.2" y="127.57" transform="matrix(-0.7071 -0.7071 0.7071 -0.7071 373.0343 684.9955)" style="fill:#61ACD2;" width="96.369" height="275.34"/>
<path style="fill:#CA463D;" d="M459.81,201.968l-68.143-68.143l24.338-24.338c18.817-18.817,49.326-18.817,68.143,0l0,0
	c18.817,18.817,18.817,49.326,0,68.143L459.81,201.968z"/>
<polygon style="fill:#F4A026;" points="264.789,397.679 172.307,422.015 196.644,329.534 "/>
<polygon style="fill:#EFEFEF;" points="123.904,15.763 123.904,125.9 13.877,125.9 "/>
<path d="M493.882,100.441c-11.702-11.701-27.259-18.145-43.807-18.145c-16.548,0-32.161,6.444-43.862,18.145l-37.254,37.197V15.763
	c0-7.604-6.053-13.767-13.657-13.767H124.014c-3.651,0-7.153,1.451-9.735,4.032L4.087,116.166C1.506,118.747,0,122.249,0,125.9
	v370.336c0,7.604,6.274,13.767,13.877,13.767h341.425c7.604,0,13.657-6.164,13.657-13.767V312.868l124.867-124.813
	C505.528,176.353,512,160.796,512,144.248S505.583,112.143,493.882,100.441z M238.105,390.465l-46.478,12.231l12.231-46.477
	L238.105,390.465z M265.112,377.885l-48.674-48.674l175.227-175.227l48.674,48.674L265.112,377.885z M110.137,49v63.133H47.114
	L110.137,49z M341.425,482.47H27.534V139.668h96.48c7.604,0,13.657-6.164,13.657-13.767v-96.37h203.754v135.642L187.178,319.475
	c-0.067,0.067-0.096,0.14-0.161,0.209c-1.759,1.714-3.054,3.888-3.701,6.347l-24.329,92.481c-1.246,4.734,0.12,9.776,3.584,13.238
	c2.614,2.614,6.132,4.032,9.738,4.032c1.167,0,2.346-0.149,3.504-0.453l92.481-24.338c2.457-0.647,4.631-1.955,6.347-3.713
	c0.069-0.066,0.088-0.122,0.156-0.19l66.63-66.687V482.47z M474.412,168.584l-14.601,14.603l-48.674-48.674l14.601-14.601
	c6.501-6.501,15.144-10.082,24.338-10.082c9.192,0,17.837,3.581,24.338,10.082c6.501,6.501,10.08,15.144,10.08,24.336
	S480.912,162.085,474.412,168.584z"/>
<path d="M117.131,408.127H77.206c-7.604,0-13.767,6.164-13.767,13.767s6.164,13.767,13.767,13.767h39.925
	c7.604,0,13.767-6.164,13.767-13.767S124.734,408.127,117.131,408.127z"/>
<path d="M124.014,353.058H77.206c-7.604,0-13.767,6.164-13.767,13.767s6.164,13.767,13.767,13.767h46.808
	c7.604,0,13.767-6.164,13.767-13.767S131.618,353.058,124.014,353.058z"/>
<path d="M137.782,297.99H77.206c-7.604,0-13.767,6.164-13.767,13.767c0,7.604,6.164,13.767,13.767,13.767h60.575
	c7.604,0,13.767-6.164,13.767-13.767C151.549,304.153,145.385,297.99,137.782,297.99z"/>
<path d="M77.206,270.456h100.5c7.604,0,13.767-6.164,13.767-13.767c0-7.604-6.164-13.767-13.767-13.767h-100.5
	c-7.604,0-13.767,6.164-13.767,13.767C63.439,264.292,69.603,270.456,77.206,270.456z"/>
<path d="M77.206,215.387h156.945c7.604,0,13.767-6.164,13.767-13.767s-6.164-13.767-13.767-13.767H77.206
	c-7.604,0-13.767,6.164-13.767,13.767S69.603,215.387,77.206,215.387z"/>
<path d="M179.083,160.318H297.48c7.604,0,13.767-6.164,13.767-13.767c0-7.604-6.164-13.767-13.767-13.767H179.083
	c-7.604,0-13.767,6.164-13.767,13.767C165.316,154.155,171.479,160.318,179.083,160.318z"/>
<path d="M179.083,105.25H297.48c7.604,0,13.767-6.164,13.767-13.767c0-7.604-6.164-13.767-13.767-13.767H179.083
	c-7.604,0-13.767,6.164-13.767,13.767C165.316,99.086,171.479,105.25,179.083,105.25z"/>
</svg>