<?xml version="1.0" encoding="iso-8859-1"?>
<!-- Uploaded to: SVG Repo, www.svgrepo.com, Generator: SVG Repo Mixer Tools -->
<svg height="800px" width="800px" version="1.1" id="Layer_1" xmlns="http://www.w3.org/2000/svg" xmlns:xlink="http://www.w3.org/1999/xlink" 
	 viewBox="0 0 512.001 512.001" xml:space="preserve">
<path style="fill:#FF0435;" d="M88.377,408.382V45.924c0-21.024,17.063-38.088,38.102-38.088h297.133v400.545H88.377z"/>
<path style="fill:#E60020;" d="M130.367,343.643V7.837h-3.888c-21.039,0-38.102,17.063-38.102,38.088v362.457h335.236v-64.739
	L130.367,343.643L130.367,343.643z"/>
<path style="fill:#E0E0E3;" d="M423.613,446.47H126.474c-21.039,0-38.095-17.056-38.095-38.095l0,0
	c0-21.039,17.056-38.095,38.095-38.095h297.139V446.47z"/>
<path style="fill:#D2D1D3;" d="M113.812,436.892L113.812,436.892c0-21.039,17.056-38.095,38.095-38.095h271.706v-28.515H126.474
	c-21.039,0-38.095,17.056-38.095,38.095l0,0c0,16.887,10.991,31.198,26.207,36.192C114.078,442.089,113.812,439.521,113.812,436.892
	z"/>
<polygon style="fill:#FF0435;" points="368.104,413.818 297.986,413.818 297.986,504.163 333.044,483.665 368.104,504.163 "/>
<path d="M423.617,136.934c4.329,0,7.837-3.508,7.837-7.837V7.837c0-4.329-3.508-7.837-7.837-7.837H126.469
	c-25.322,0-45.923,20.606-45.923,45.934v362.444c0,25.327,20.601,45.934,45.923,45.934h57.438c4.329,0,7.837-3.508,7.837-7.837
	c0-4.329-3.508-7.837-7.837-7.837h-57.438c-16.68,0-30.25-13.574-30.25-30.26c0-8.09,3.147-15.688,8.867-21.4
	c5.706-5.713,13.301-8.86,21.383-8.86H415.78v30.26v30.26h-39.841v-16.984h5.791c4.329,0,7.837-3.508,7.837-7.837
	c0-4.329-3.508-7.837-7.837-7.837H153.585c-4.329,0-7.837,3.508-7.837,7.837c0,4.329,3.508,7.837,7.837,7.837h136.564v16.984H221.2
	c-4.329,0-7.837,3.508-7.837,7.837s3.508,7.837,7.837,7.837h68.949v49.852c0,2.808,1.503,5.4,3.937,6.798
	c2.435,1.397,5.43,1.385,7.856-0.032l31.105-18.185l31.103,18.185c1.221,0.715,2.588,1.071,3.955,1.071
	c1.346,0,2.692-0.346,3.9-1.039c2.435-1.398,3.937-3.99,3.937-6.798v-49.852h47.678c4.329,0,7.837-3.508,7.837-7.837v-38.097
	v-38.097v-205.94c0-4.329-3.508-7.837-7.837-7.837s-7.837,3.508-7.837,7.837v198.102H126.471c-11.258,0-21.884,4.031-30.25,11.387
	V45.934c0-16.686,13.57-30.26,30.25-30.26h289.311v113.424C415.78,133.425,419.289,136.934,423.617,136.934z M360.266,446.455
	c0,0.007-0.001,0.014-0.001,0.02c0,0.006,0.001,0.014,0.001,0.02v44.008l-23.267-13.604c-2.442-1.427-5.466-1.428-7.91,0
	l-23.268,13.604v-43.947c0-0.027,0.004-0.053,0.004-0.08c0-0.027-0.004-0.053-0.004-0.08v-24.74h53.635h0.809v24.801H360.266z"/>
<path d="M285.282,78.491c4.329,0,7.837-3.508,7.837-7.837s-3.508-7.837-7.837-7.837h-56.457c-4.329,0-7.837,3.508-7.837,7.837
	c0,4.329,3.508,7.837,7.837,7.837H285.282z"/>
<path d="M317.996,110.98H196.11c-4.329,0-7.837,3.508-7.837,7.837s3.508,7.837,7.837,7.837h121.885c4.329,0,7.837-3.508,7.837-7.837
	S322.325,110.98,317.996,110.98z"/>
<path d="M317.996,159.143H196.11c-4.329,0-7.837,3.508-7.837,7.837c0,4.329,3.508,7.837,7.837,7.837h121.885
	c4.329,0,7.837-3.508,7.837-7.837C325.832,162.651,322.325,159.143,317.996,159.143z"/>
</svg>